<?xml version="1.0" standalone="no"?><!DOCTYPE svg PUBLIC "-//W3C//DTD SVG 1.1//EN" "http://www.w3.org/Graphics/SVG/1.1/DTD/svg11.dtd"><svg t="1650857563951" class="icon" viewBox="0 0 1843 1024" version="1.1" xmlns="http://www.w3.org/2000/svg" p-id="1412" xmlns:xlink="http://www.w3.org/1999/xlink" width="359.9609375" height="200"><defs><style type="text/css">@font-face { font-family: feedback-iconfont; src: url("//at.alicdn.com/t/font_1031158_u69w8yhxdu.woff2?t=1630033759944") format("woff2"), url("//at.alicdn.com/t/font_1031158_u69w8yhxdu.woff?t=1630033759944") format("woff"), url("//at.alicdn.com/t/font_1031158_u69w8yhxdu.ttf?t=1630033759944") format("truetype"); }
</style></defs><path d="M1342.34112 428.244992l-57.344 142.327808-57.36448-142.327808h-71.225344l92.790784 230.27712h71.503872l92.798976-230.27712z" fill="#CB0000" p-id="1413"></path><path d="M254.455808 599.601152V360.448H188.416v298.074112h207.044608v-58.92096z" fill="#CB0000" p-id="1414"></path><path d="M1526.288384 423.399424c-68.722688 0-124.399616 53.518336-124.399616 119.6032s55.66464 119.574528 124.399616 119.574528 124.411904-53.547008 124.411904-119.574528-55.7056-119.6032-124.411904-119.6032z m-1.011712 185.458688c-33.947648 0-61.472768-28.950528-61.472768-64.630784s27.52512-64.643072 61.472768-64.643072 61.472768 28.950528 61.472768 64.643072-27.512832 64.630784-61.489152 64.630784z" fill="#CB0000" p-id="1415"></path><path d="M1042.870272 423.399424c-68.706304 0-124.383232 53.518336-124.383232 119.6032s55.676928 119.574528 124.383232 119.574528 124.411904-53.547008 124.411904-119.574528-55.7056-119.6032-124.411904-119.6032z m-0.999424 185.458688c-33.947648 0-61.44-28.950528-61.44-64.630784s27.512832-64.643072 61.44-64.643072 61.472768 28.950528 61.472768 64.643072-27.52512 64.630784-61.472768 64.630784z" fill="#CB0000" p-id="1416"></path><path d="M895.823872 516.329472c0.733184-40.927232-26.898432-90.43968-85.827584-92.930048-47.751168-2.011136-73.838592 24.621056-81.948672 34.787328v-29.937664h-66.043904v230.27712h66.043904v-140.132352c6.144-20.48 21.7088-38.31808 50.466816-38.838272 46.882816 3.6864 51.253248 40.034304 51.253248 40.034304v138.932224h66.056192v-139.808768s2.51904 38.797312 0-2.383872z" fill="#CB0000" p-id="1417"></path><path d="M481.60768 592.789504l159.86688-66.3552s-4.063232-85.13536-98.803712-101.216256a157.0816 157.0816 0 0 0-39.288832 0.372736c-30.564352 5.251072-80.580608 22.769664-97.21856 81.043456-24.543232 86.147072 30.814208 124.5184 44.191744 133.885952s102.576128 54.02624 186.96192-22.315008l-41.050112-30.789632s-64.7168 51.318784-114.659328 5.369856z m-17.2032-69.013504c6.90176-38.0928 41.51296-45.326336 48.898048-46.190592 46.206976-6.36928 58.421248 29.671424 58.421248 29.671424l-107.823104 43.99104a79.089664 79.089664 0 0 1 0.507904-27.471872z" fill="#CB0000" p-id="1418"></path></svg>